<svg width="23" height="23" viewBox="0 0 23 23" fill="none" xmlns="http://www.w3.org/2000/svg">
<path d="M0.395021 3.32856C0.395021 2.59677 0.679264 1.89495 1.18522 1.37749C1.69118 0.860039 2.3774 0.569336 3.09293 0.569336H16.3372C17.0527 0.569336 17.739 0.860039 18.2449 1.37749C18.7509 1.89495 19.0351 2.59677 19.0351 3.32856V4.59078C19.9664 4.65442 20.8392 5.07766 21.4767 5.77479C22.1143 6.47191 22.4689 7.3908 22.4688 8.34534V18.8806C22.4688 19.8785 22.0812 20.8355 21.3913 21.5411C20.7013 22.2467 19.7656 22.6431 18.7899 22.6431H4.07791C3.10219 22.6431 2.16643 22.2467 1.47649 21.5411C0.78655 20.8355 0.398945 19.8785 0.398945 18.8806V8.34534H0.395021V3.5794H0.405812C0.398542 3.496 0.394941 3.4123 0.395021 3.32856ZM17.5635 3.32856C17.5635 2.63625 17.0141 2.07437 16.3372 2.07437H3.09293C2.76769 2.07437 2.45577 2.20651 2.22579 2.44171C1.99581 2.67692 1.86661 2.99593 1.86661 3.32856C1.86661 3.66119 1.99581 3.9802 2.22579 4.21541C2.45577 4.45062 2.76769 4.58276 3.09293 4.58276H17.5635V3.32856ZM15.8467 13.6129C15.6515 13.6129 15.4644 13.6922 15.3264 13.8334C15.1884 13.9745 15.1109 14.1659 15.1109 14.3655C15.1109 14.565 15.1884 14.7565 15.3264 14.8976C15.4644 15.0387 15.6515 15.118 15.8467 15.118H18.2993C18.4945 15.118 18.6816 15.0387 18.8196 14.8976C18.9576 14.7565 19.0351 14.565 19.0351 14.3655C19.0351 14.1659 18.9576 13.9745 18.8196 13.8334C18.6816 13.6922 18.4945 13.6129 18.2993 13.6129H15.8467Z" fill="white"/>
</svg>
