<svg width="14" height="13" viewBox="0 0 14 13" fill="none" xmlns="http://www.w3.org/2000/svg">
<path d="M11.8706 2.40415L11.87 2.40359C11.5595 2.09917 11.1933 1.85725 10.7915 1.69099L10.7906 1.6906C10.3736 1.51738 9.92633 1.42872 9.47479 1.42976L9.47315 1.42976C8.8376 1.42976 8.21886 1.60372 7.68178 1.93136L7.68176 1.93138C7.55325 2.00977 7.43169 2.09554 7.31682 2.18871L6.86647 2.554L6.41612 2.18871C6.30126 2.09554 6.1797 2.00977 6.05118 1.93138L6.05116 1.93136C5.51408 1.60372 4.89534 1.42976 4.2598 1.42976C3.80087 1.42976 3.35947 1.51735 2.94237 1.69061L2.9416 1.69093C2.5381 1.85798 2.17517 2.09776 1.8627 2.40381L1.86172 2.40476L1.86172 2.40476C1.55252 2.70645 1.30551 3.06588 1.13471 3.46268L11.8706 2.40415ZM11.8706 2.40415C12.1798 2.7066 12.4271 3.06644 12.5986 3.46353M11.8706 2.40415L12.5986 3.46353M12.5986 3.46353C12.7761 3.87633 12.8661 4.31238 12.8649 4.76195V4.76398C12.8649 5.1837 12.7792 5.63659 12.5965 6.11427L12.5959 6.11589C12.4447 6.5142 12.2189 6.94167 11.9211 7.38622C11.4502 8.08811 10.7898 8.8388 9.949 9.61507L12.5986 3.46353ZM3.78259 9.61525L3.78267 9.61533C4.47913 10.2585 5.175 10.8046 5.70544 11.1951C5.97012 11.39 6.1922 11.5451 6.35074 11.653C6.43 11.707 6.49316 11.749 6.5376 11.7782C6.58489 11.8093 6.60609 11.8226 6.60387 11.8213L6.6152 11.8282L6.61513 11.8283L6.8657 11.989L7.11626 11.8283L7.1164 11.8282C7.16286 11.7985 8.54962 10.906 9.9488 9.61525H3.78259ZM3.78259 9.61525C2.94169 8.83892 2.28119 8.08816 1.8103 7.38622C1.51333 6.94292 1.28827 6.51469 1.13475 6.11391C0.952165 5.63637 0.866518 5.1836 0.866518 4.76398C0.866518 4.31274 0.956956 3.87575 1.13469 3.46273L3.78259 9.61525Z" stroke="#888888" stroke-width="1.42981"/>
</svg>
